<?xml version="1.0" encoding="UTF-8" standalone="no" ?>
<!DOCTYPE svg PUBLIC "-//W3C//DTD SVG 1.1//EN" "http://www.w3.org/Graphics/SVG/1.1/DTD/svg11.dtd">
<svg xmlns="http://www.w3.org/2000/svg" xmlns:xlink="http://www.w3.org/1999/xlink" version="1.1" width="1280" height="447.3711564033549" viewBox="0 0 1280 447.3711564033549" xml:space="preserve">
<desc>Created with Fabric.js 5.3.0</desc>
<defs>
</defs>
<g transform="matrix(1 0 0 1 640 223.68557820167746)" id="background-logo"  >
<rect style="stroke: none; stroke-width: 0; stroke-dasharray: none; stroke-linecap: butt; stroke-dashoffset: 0; stroke-linejoin: miter; stroke-miterlimit: 4; fill: rgb(255,255,255); fill-opacity: 0; fill-rule: nonzero; opacity: 1;"  paint-order="stroke"  x="-640" y="-469.5127112666122" rx="0" ry="0" width="1280" height="939.0254225332244" />
</g>
<g transform="matrix(1.8058181202562007 0 0 1.8058181202562007 640.6300484031077 126.91354481349981)" id="logo-logo"  >
<g style=""  paint-order="stroke"   >
		<g transform="matrix(0.22554672164510017 0 0 0.22554672164510017 0 0)"  >
<linearGradient id="SVGID_1_69197" gradientUnits="userSpaceOnUse" gradientTransform="matrix(1 0 0 1 0 0)"  x1="36.5039" y1="509.31" x2="690.3608" y2="218.2707">
<stop offset="0%" style="stop-color:rgb(0,186,177);stop-opacity: 1"/>
<stop offset="20.8%" style="stop-color:rgb(97,216,151);stop-opacity: 1"/>
<stop offset="41.39%" style="stop-color:rgb(187,244,127);stop-opacity: 1"/>
<stop offset="50.63999999999999%" style="stop-color:rgb(222,255,118);stop-opacity: 1"/>
<stop offset="96.52%" style="stop-color:rgb(245,255,230);stop-opacity: 1"/>
</linearGradient>
<path style="stroke: none; stroke-width: 1; stroke-dasharray: none; stroke-linecap: butt; stroke-dashoffset: 0; stroke-linejoin: miter; stroke-miterlimit: 4; fill: url(#SVGID_1_69197); fill-rule: nonzero; opacity: 1;"  paint-order="stroke"  transform=" translate(-360.00000000000006, -360)" d="M 412.5 640.7 C 333.4 640.7 261.6 608.7 209.7 556.9000000000001 C 167.6 515.0000000000001 138.39999999999998 460.1000000000001 128.7 398.80000000000007 L 128.7 398.70000000000005 C 126.39999999999999 383.80000000000007 125.1 368.70000000000005 125.1 353.20000000000005 C 125.1 316.90000000000003 131.79999999999998 282.1 144.2 250.10000000000005 C 150.79999999999998 232.90000000000006 159 216.40000000000003 168.7 201.00000000000006 C 219.5 119.80000000000005 309.7 65.80000000000007 412.6 65.80000000000007 C 451.5 65.80000000000007 488.5 73.50000000000007 522.3000000000001 87.40000000000006 C 477.7 62.9 426.4 48.9 372 48.9 C 200.1 48.9 60.8 188.2 60.8 360 C 60.8 410.7 72.89999999999999 458.6 94.5 500.9 L 94.5 501 C 104.7 521 117 539.7 131.1 556.9 C 188.1 626.6 274.9 671.1 372 671.1 C 463.3 671.1 545.4 631.8000000000001 602.3 569.2 C 551.6 613.7 485.2 640.7 412.5 640.7 z M 500.6 282.6 C 484.20000000000005 282.6 470.70000000000005 295.90000000000003 470.70000000000005 312.40000000000003 C 470.70000000000005 328.90000000000003 484.1 342.3 500.6 342.3 C 517.1 342.3 530.4 328.90000000000003 530.4 312.40000000000003 C 530.4 295.9 517 282.6 500.6 282.6 z M 494.8 325.1 C 484.7 325.1 476.5 316.8 476.5 306.70000000000005 C 476.5 296.6 484.7 288.40000000000003 494.8 288.40000000000003 C 505 288.40000000000003 513.2 296.6 513.2 306.70000000000005 C 513.2 316.8 505 325.1 494.8 325.1 z M 612.4 334.7 C 595.9 334.7 582.5 348.09999999999997 582.5 364.5 C 582.5 368.4 583.3 372.1 584.6 375.5 C 583.2 375.3 581.9 375.1 580.5 375.1 C 567.3 375.1 556.5 385.90000000000003 556.5 399.1 C 556.5 412.40000000000003 567.3 423.1 580.5 423.1 C 593.7 423.1 604.5 412.3 604.5 399.1 C 604.5 397 604.1 395 603.6 393.1 C 606.4 393.90000000000003 609.3000000000001 394.40000000000003 612.4 394.40000000000003 C 628.8 394.40000000000003 642.1999999999999 381.1 642.1999999999999 364.50000000000006 C 642.2 348.1 628.8 334.7 612.4 334.7 z M 575.9 409.2 C 567.6999999999999 409.2 561.1 402.59999999999997 561.1 394.5 C 561.1 386.3 567.7 379.7 575.9 379.7 C 584.0999999999999 379.7 590.6 386.3 590.6 394.5 C 590.6 402.6 584.1 409.2 575.9 409.2 z M 606.6 377.2 C 596.5 377.2 588.3000000000001 369 588.3000000000001 358.8 C 588.3000000000001 348.7 596.5000000000001 340.5 606.6 340.5 C 616.7 340.5 625 348.7 625 358.8 C 625 369 616.8 377.2 606.6 377.2 z M 523 232.7 C 512.7 232.7 504.3 241.1 504.3 251.39999999999998 C 504.3 261.7 512.7 270.09999999999997 523 270.09999999999997 C 533.3 270.09999999999997 541.7 261.7 541.7 251.39999999999998 C 541.7 241 533.3 232.7 523 232.7 z M 519.4 259.3 C 513 259.3 507.9 254.10000000000002 507.9 247.8 C 507.9 241.5 513 236.3 519.4 236.3 C 525.8 236.3 530.9 241.5 530.9 247.8 C 530.9 254.1 525.7 259.3 519.4 259.3 z M 616.4 416.1 C 606.1 416.1 597.6999999999999 424.5 597.6999999999999 434.8 C 597.6999999999999 445.2 606.0999999999999 453.5 616.4 453.5 C 626.6999999999999 453.5 635.1 445.2 635.1 434.8 C 635.1 424.5 626.8 416.1 616.4 416.1 z M 612.8 442.7 C 606.4 442.7 601.3 437.5 601.3 431.2 C 601.3 424.8 606.5 419.7 612.8 419.7 C 619.0999999999999 419.7 624.3 424.9 624.3 431.2 C 624.3 437.6 619.1 442.7 612.8 442.7 z M 471.4 227.4 C 463.79999999999995 227.4 457.7 233.5 457.7 241.1 C 457.7 248.7 463.8 254.79999999999998 471.4 254.79999999999998 C 478.9 254.79999999999998 485 248.7 485 241.1 C 485 233.5 478.9 227.4 471.4 227.4 z M 468.7 246.9 C 464.09999999999997 246.9 460.3 243.1 460.3 238.5 C 460.3 233.9 464.1 230.1 468.7 230.1 C 473.3 230.1 477.09999999999997 233.9 477.09999999999997 238.5 C 477.2 243.1 473.4 246.9 468.7 246.9 z M 290 429.8 C 282.5 429.8 276.3 435.90000000000003 276.3 443.5 C 276.3 451.1 282.40000000000003 457.2 290 457.2 C 297.6 457.2 303.7 451.09999999999997 303.7 443.5 C 303.7 435.9 297.6 429.8 290 429.8 z M 287.4 449.3 C 282.79999999999995 449.3 279 445.5 279 440.90000000000003 C 279 436.3 282.8 432.50000000000006 287.4 432.50000000000006 C 292 432.50000000000006 295.79999999999995 436.30000000000007 295.79999999999995 440.90000000000003 C 295.8 445.5 292.1 449.3 287.4 449.3 z M 365.6 437 C 353.6 437 343.8 446.7 343.8 458.7 C 343.8 459.8 344 460.8 344.1 461.9 C 339.40000000000003 458.9 333.8 457.2 327.8 457.2 C 310.90000000000003 457.2 297.2 470.9 297.2 487.8 C 297.2 504.8 311 518.5 327.8 518.5 C 344.7 518.5 358.40000000000003 504.8 358.40000000000003 487.8 C 358.40000000000003 484.7 357.90000000000003 481.7 357.00000000000006 478.8 C 359.6000000000001 479.90000000000003 362.40000000000003 480.5 365.50000000000006 480.5 C 377.50000000000006 480.5 387.20000000000005 470.8 387.20000000000005 458.7 C 387.3 446.7 377.6 437 365.6 437 z M 322 500.7 C 311.6 500.7 303.1 492.3 303.1 481.9 C 303.1 471.49999999999994 311.6 463 322 463 C 332.4 463 340.8 471.5 340.8 481.9 C 340.8 492.29999999999995 332.4 500.7 322 500.7 z M 361.4 467.9 C 354 467.9 348 461.9 348 454.59999999999997 C 348 447.2 354 441.2 361.4 441.2 C 368.7 441.2 374.7 447.2 374.7 454.59999999999997 C 374.7 461.9 368.8 467.9 361.4 467.9 z M 612.8 282.6 C 606.5 282.6 601.4 287.70000000000005 601.4 294 C 601.4 300.3 606.5 305.4 612.8 305.4 C 619.0999999999999 305.4 624.0999999999999 300.29999999999995 624.0999999999999 294 C 624.2 287.7 619.1 282.6 612.8 282.6 z M 610.6 298.7 C 606.8000000000001 298.7 603.6 295.59999999999997 603.6 291.7 C 603.6 287.8 606.8000000000001 284.7 610.6 284.7 C 614.5 284.7 617.6 287.9 617.6 291.7 C 617.6 295.6 614.5 298.7 610.6 298.7 z M 641.2 76.8 L 530.2 367.7 L 548.1 374.5 L 659.2 83.7 L 641.2 76.8 z M 565.7 426.2 L 536.6 415 L 550.4 378.7 L 525.6 369.2 L 511.70000000000005 405.5 L 482.50000000000006 394.3 C 465.00000000000006 387.7 445.30000000000007 394.2 435.30000000000007 410 L 406.70000000000005 455.2 L 581.6 522 L 590.5 469.3 C 590.9 467.1 591 465 591 462.90000000000003 C 591.1 446.8 581.2 432.1 565.7 426.2 z M 570.4 521.7 L 569 521.2 L 409.7 460.30000000000007 C 409.7 460.30000000000007 320.1 592.8000000000001 248.1 576.4000000000001 C 305.5 598.3000000000001 361.7 539.7 391 501.0000000000001 L 372.4 526.8000000000001 C 361 541.4000000000001 348.79999999999995 554.7 334.4 565.7 C 320 576.8000000000001 303.4 585.7 283.29999999999995 591.6 C 321.4 595.8000000000001 355.9 567 379.29999999999995 541.8000000000001 L 325.4 601.5000000000001 C 337 600.4000000000001 347.9 592.2000000000002 361.2 577.8000000000001 C 376.3 561.5000000000001 393.59999999999997 539.7 399.7 531.7 L 350.7 600.6 L 351 600.6 C 361.1 601.1 373.3 589.3000000000001 379.6 581.4 C 396.5 560.1999999999999 420.6 530.3 426.1 523.6999999999999 L 375.6 598.4999999999999 L 406.20000000000005 598.4999999999999 L 456.70000000000005 523.7999999999998 L 410 598.6 L 420.8 598.6 L 464.90000000000003 533.1 L 425.3 598.6 L 431.8 598.6 L 487.3 506.70000000000005 L 438.3 598.6 L 497.40000000000003 598.6 L 539.4000000000001 530.2 L 510.1000000000001 598.6 L 537.1000000000001 598.6 L 560.6000000000001 544.1 L 541.0000000000001 598.6 L 550.3000000000001 598.6 L 576.0000000000001 523.9 L 570.4 521.7 z M 300.7 381.1 L 300.7 386.6 L 334.3 386.6 L 334.3 345.5 C 315.6 346.5 300.7 362 300.7 381.1 z M 300.7 390.6 L 300.7 427.3 L 334.3 427.3 L 334.3 390.6 L 300.7 390.6 z M 361.6 355.8 C 355.6 349.8 347.5 346 338.40000000000003 345.5 L 338.40000000000003 386.6 L 372 386.6 L 372 381.1 C 372 371.2 368.1 362.3 361.6 355.8 z M 338.4 390.6 L 338.4 427.3 L 372 427.3 L 372 390.6 L 338.4 390.6 z M 420.2 270.8 L 327.7 270.8 L 241 385.5 L 259 385.5 L 336.7 282.7 L 414.29999999999995 385.5 L 506.79999999999995 385.5 L 420.2 270.8 z M 292.4 203.2 L 292.4 240.89999999999998 L 332.4 234.99999999999997 L 332.4 208.99999999999997 L 292.4 203.2 z M 187.2 197.9 C 173.2 218.20000000000002 161.79999999999998 240.4 153.6 264.1 C 162.79999999999998 282.40000000000003 161.29999999999998 300.70000000000005 161.29999999999998 300.70000000000005 L 202.29999999999998 300.70000000000005 C 202.29999999999998 300.70000000000005 205.7 283.50000000000006 219.39999999999998 267.1 C 224.39999999999998 261.1 230.59999999999997 255.20000000000002 238.7 250.3 C 250.79999999999998 242.9 266.8 237.70000000000002 287.7 237.70000000000002 L 287.7 205.20000000000002 C 287.7 205.2 242.8 190.7 187.2 197.9 z M 239.7 255.3 C 232.39999999999998 260 226.7 265.5 222.2 271.1 C 222.2 271.1 249.7 301.90000000000003 280.2 314.3 L 283.8 309.8 C 267.9 301.3 243.8 275.5 239.7 255.3 z M 276.9 524.4 L 205.4 310 L 158.4 310 L 139.20000000000002 367.3 C 139.20000000000002 367.3 139.20000000000002 367.40000000000003 139.20000000000002 367.40000000000003 C 143.00000000000003 442.5 177.3 509.70000000000005 229.8 556.9000000000001 L 253.60000000000002 556.9000000000001 C 270.4 556.9 282.3 540.4 276.9 524.4 z M 419.1 143.9 C 393.5 140.9 373.20000000000005 120.7 370.3 95.10000000000001 L 368.90000000000003 83.50000000000001 L 367.6 95 C 364.6 120.7 344.40000000000003 140.9 318.8 143.8 L 307.2 145.20000000000002 L 318.8 146.60000000000002 C 344.40000000000003 149.50000000000003 364.7 169.8 367.6 195.40000000000003 L 368.90000000000003 207.00000000000003 L 370.3 195.40000000000003 C 373.3 169.80000000000004 393.5 149.50000000000003 419.1 146.60000000000002 L 430.70000000000005 145.20000000000002 L 419.1 143.9 z M 457.2 202.3 C 439.8 200.3 426.2 186.60000000000002 424.2 169.3 L 423.3 161.4 L 422.40000000000003 169.3 C 420.40000000000003 186.60000000000002 406.70000000000005 200.3 389.40000000000003 202.3 L 381.6 203.20000000000002 L 389.40000000000003 204.10000000000002 C 406.8 206.10000000000002 420.40000000000003 219.8 422.40000000000003 237.10000000000002 L 423.3 245.00000000000003 L 424.2 237.10000000000002 C 426.2 219.8 439.9 206.10000000000002 457.2 204.10000000000002 L 465 203.20000000000002 L 457.2 202.3 z M 473.5 111.8 C 465.2 110.8 458.5 104.2 457.6 95.89999999999999 L 457.1 92.1 L 456.70000000000005 95.89999999999999 C 455.80000000000007 104.3 449.1 110.89999999999999 440.80000000000007 111.8 L 437.00000000000006 112.2 L 440.80000000000007 112.60000000000001 C 449.1000000000001 113.60000000000001 455.80000000000007 120.2 456.70000000000005 128.5 L 457.1 132.3 L 457.6 128.5 C 458.5 120.2 465.20000000000005 113.6 473.5 112.6 L 477.3 112.19999999999999 L 473.5 111.8 z" stroke-linecap="round" />
</g>
</g>
</g>
<g transform="matrix(1.8058181202562007 0 0 1.8058181202562007 640.560887449196 335.2080479480315)" id="text-logo"  >
<g style=""  paint-order="stroke"   >
		<g transform="matrix(1 0 0 1 0 0)" id="text-logo-path-0"  >
<path style="stroke: none; stroke-width: 0; stroke-dasharray: none; stroke-linecap: butt; stroke-dashoffset: 0; stroke-linejoin: miter; stroke-miterlimit: 4; fill: rgb(62,205,161); fill-rule: nonzero; opacity: 1;"  paint-order="stroke"  transform=" translate(-208.675, 17.524812220942604)" d="M 1.5 -33.2 L 1.5 -1.8 C 1.5 -1.25 1.2 -0.7 0.75 -0.3 C 0.6 -0.15 0.7 0 0.85 0 L 8.65 0 C 8.8 0 8.9 -0.15 8.75 -0.3 C 8.3 -0.7 8 -1.25 8 -1.8 L 8 -8.3 C 8 -8.8 8.1 -9.6 8.25 -10.05 C 9.55 -14.2 11.9 -15.45 16.65 -15 C 17.2 -14.95 17.7 -14.6 18.05 -14.1 C 18.15 -13.95 18.35 -14 18.35 -14.15 L 18.45 -14.85 L 19.45 -21.15 L 19.55 -21.85 C 19.55 -22 19.4 -22.1 19.25 -22 C 18.8 -21.6 18.2 -21.35 17.65 -21.4 C 14.25 -21.7 11.3 -21.3 8.8 -20.05 C 8.35 -19.85 8 -20.05 8 -20.55 L 8 -27.6 C 8 -28.1 8.4 -28.5 8.9 -28.5 L 21.85 -28.5 C 22.4 -28.5 23.1 -27.95 23.65 -27.7 C 23.85 -27.6 23.95 -27.75 23.9 -27.9 L 21.5 -34.15 C 21.3 -34.65 20.75 -35 20.25 -35 L 0.85 -35 C 0.7 -35 0.6 -34.85 0.75 -34.7 C 1.2 -34.3 1.5 -33.75 1.5 -33.2 Z M 35.55 -33.2 L 35.55 -1.8 C 35.55 -1.25 35.25 -0.7 34.8 -0.3 C 34.65 -0.15 34.75 0 34.9 0 L 42.7 0 C 42.85 0 42.95 -0.15 42.8 -0.3 C 42.35 -0.7 42.05 -1.25 42.05 -1.8 L 42.05 -33.2 C 42.05 -33.75 42.35 -34.3 42.8 -34.7 C 42.95 -34.85 42.85 -35 42.7 -35 L 34.9 -35 C 34.75 -35 34.65 -34.85 34.8 -34.7 C 35.25 -34.3 35.55 -33.75 35.55 -33.2 Z M 74.6 0 L 83.15 0 C 83.3 0 83.4 -0.15 83.25 -0.3 C 82.8 -0.7 81.9 -1.1 81.6 -1.55 L 72.6 -17.85 C 72.35 -18.3 72.35 -19 72.6 -19.45 L 80.35 -33.45 C 80.65 -33.9 81.55 -34.3 82 -34.7 C 82.15 -34.85 82.05 -35 81.9 -35 L 73.35 -35 C 73.2 -35 73.1 -34.85 73.25 -34.7 C 73.7 -34.3 73.4 -33.9 73.1 -33.45 L 68.95 -25.95 C 68.7 -25.5 68.3 -25.5 68.05 -25.95 L 63.9 -33.45 C 63.6 -33.9 63.3 -34.3 63.75 -34.7 C 63.9 -34.85 63.8 -35 63.65 -35 L 55.1 -35 C 54.95 -35 54.85 -34.85 55 -34.7 C 55.45 -34.3 56.35 -33.9 56.65 -33.45 L 64.45 -19.45 C 64.7 -19 64.7 -18.3 64.45 -17.85 L 55.4 -1.55 C 55.1 -1.1 54.2 -0.7 53.75 -0.3 C 53.6 -0.15 53.7 0 53.85 0 L 62.4 0 C 62.55 0 62.65 -0.15 62.5 -0.3 C 62.05 -0.7 62.35 -1.1 62.65 -1.55 L 68.05 -11.3 C 68.3 -11.75 68.7 -11.75 68.95 -11.3 L 74.35 -1.55 C 74.65 -1.1 74.95 -0.7 74.5 -0.3 C 74.35 -0.15 74.45 0 74.6 0 Z M 136.25 -35 L 117.25 -35 C 116.75 -35 116.2 -34.65 116 -34.15 L 113.6 -27.9 C 113.55 -27.75 113.65 -27.6 113.85 -27.7 C 114.4 -27.95 115.1 -28.5 115.65 -28.5 L 122.6 -28.5 C 123.1 -28.5 123.5 -28.9 123.5 -29.4 L 123.5 -1.8 C 123.5 -1.25 123.2 -0.7 122.75 -0.3 C 122.6 -0.15 122.7 0 122.85 0 L 130.65 0 C 130.8 0 130.9 -0.15 130.75 -0.3 C 130.3 -0.7 130 -1.25 130 -1.8 L 130 -29.4 C 130 -28.9 130.4 -28.5 130.9 -28.5 L 137.85 -28.5 C 138.4 -28.5 139.1 -27.95 139.65 -27.7 C 139.85 -27.6 139.95 -27.75 139.9 -27.9 L 137.5 -34.15 C 137.3 -34.65 136.75 -35 136.25 -35 Z M 151.55 -33.2 L 151.55 -1.8 C 151.55 -1.25 151.25 -0.7 150.8 -0.3 C 150.65 -0.15 150.75 0 150.9 0 L 158.7 0 C 158.85 0 158.95 -0.15 158.8 -0.3 C 158.35 -0.7 158.05 -1.25 158.05 -1.8 L 158.05 -5.85 C 158.05 -6.35 158.45 -6.75 158.95 -6.75 L 172.15 -6.75 C 172.65 -6.75 173.05 -6.35 173.05 -5.85 L 173.05 -1.8 C 173.05 -1.25 172.75 -0.7 172.3 -0.3 C 172.15 -0.15 172.25 0 172.4 0 L 180.2 0 C 180.35 0 180.45 -0.15 180.3 -0.3 C 179.85 -0.7 179.55 -1.25 179.55 -1.8 L 179.55 -33.2 C 179.55 -33.75 179.85 -34.3 180.3 -34.7 C 180.45 -34.85 180.35 -35 180.2 -35 L 172.4 -35 C 172.25 -35 172.15 -34.85 172.3 -34.7 C 172.75 -34.3 173.05 -33.75 173.05 -33.2 L 173.05 -14.15 C 173.05 -13.65 172.65 -13.25 172.15 -13.25 L 158.95 -13.25 C 158.45 -13.25 158.05 -13.65 158.05 -14.15 L 158.05 -33.2 C 158.05 -33.75 158.35 -34.3 158.8 -34.7 C 158.95 -34.85 158.85 -35 158.7 -35 L 150.9 -35 C 150.75 -35 150.65 -34.85 150.8 -34.7 C 151.25 -34.3 151.55 -33.75 151.55 -33.2 Z M 192 -33.2 L 192 -1.8 C 192 -1.25 191.7 -0.7 191.25 -0.3 C 191.1 -0.15 191.2 0 191.35 0 L 199.15 0 C 199.3 0 199.4 -0.15 199.25 -0.3 C 198.8 -0.7 198.5 -1.25 198.5 -1.8 L 198.5 -33.2 C 198.5 -33.75 198.8 -34.3 199.25 -34.7 C 199.4 -34.85 199.3 -35 199.15 -35 L 191.35 -35 C 191.2 -35 191.1 -34.85 191.25 -34.7 C 191.7 -34.3 192 -33.75 192 -33.2 Z M 234.25 -29.4 C 231.85 -33.1 227.45 -35.4 222.75 -35.4 C 216.3 -35.35 210.95 -30.65 210.95 -24.65 C 210.9 -14 226.75 -14.9 226.75 -10.05 C 226.75 -8 225 -6.4 222.25 -6.4 C 220.5 -6.35 219 -6.95 217.8 -8.05 C 217.45 -8.45 217.25 -9 217.4 -9.6 C 217.4 -9.8 217.25 -9.85 217.15 -9.8 L 216.55 -9.35 L 211.85 -6 C 211.45 -5.75 211.35 -5.2 211.65 -4.8 C 214.2 -1.7 218.3 0.35 222.25 0.35 C 228.2 0.4 233.5 -4.55 233.5 -10.05 C 233.45 -20.7 217.7 -19.2 217.7 -24.65 C 217.7 -27.1 219.35 -28.65 222.75 -28.65 C 224.95 -28.65 226.5 -28.1 227.65 -26.85 C 228 -26.4 228.1 -25.9 227.9 -25.3 C 227.85 -25.1 228 -25 228.15 -25.1 L 228.75 -25.4 L 233.9 -28.15 C 234.35 -28.4 234.5 -28.95 234.25 -29.4 Z M 266.25 -33.2 L 266.25 -1.8 C 266.25 -1.25 265.95 -0.7 265.5 -0.3 C 265.35 -0.15 265.45 0 265.6 0 L 273.4 0 C 273.55 0 273.65 -0.15 273.5 -0.3 C 273.05 -0.7 272.75 -1.25 272.75 -1.8 L 272.75 -8.3 C 272.75 -8.8 272.85 -9.6 273 -10.05 C 274.3 -14.2 276.65 -15.45 281.4 -15 C 281.95 -14.95 282.45 -14.6 282.8 -14.1 C 282.9 -13.95 283.1 -14 283.1 -14.15 L 283.2 -14.85 L 284.2 -21.15 L 284.3 -21.85 C 284.3 -22 284.15 -22.1 284 -22 C 283.55 -21.6 282.95 -21.35 282.4 -21.4 C 279 -21.7 276.05 -21.3 273.55 -20.05 C 273.1 -19.85 272.75 -20.05 272.75 -20.55 L 272.75 -27.6 C 272.75 -28.1 273.15 -28.5 273.65 -28.5 L 286.6 -28.5 C 287.15 -28.5 287.85 -27.95 288.4 -27.7 C 288.6 -27.6 288.7 -27.75 288.65 -27.9 L 286.25 -34.15 C 286.05 -34.65 285.5 -35 285 -35 L 265.6 -35 C 265.45 -35 265.35 -34.85 265.5 -34.7 C 265.95 -34.3 266.25 -33.75 266.25 -33.2 Z M 300.3 -33.2 L 300.3 -1.8 C 300.3 -1.25 300 -0.7 299.55 -0.3 C 299.4 -0.15 299.5 0 299.65 0 L 320.05 0 C 320.55 0 321.1 -0.35 321.3 -0.85 L 323.7 -7.1 C 323.75 -7.25 323.65 -7.4 323.45 -7.3 C 322.9 -7.05 322.2 -6.5 321.65 -6.5 L 307.7 -6.5 C 307.2 -6.5 306.8 -6.9 306.8 -7.4 L 306.8 -9.35 C 306.9 -9.5 306.9 -9.5 306.95 -9.65 C 308.25 -14.15 310.55 -15.45 315.45 -15 C 316 -14.95 316.5 -14.6 316.85 -14.1 C 316.95 -13.95 317.15 -14 317.15 -14.15 L 317.25 -14.85 L 318.25 -21.15 L 318.35 -21.85 C 318.35 -22 318.2 -22.1 318.05 -22 C 317.6 -21.6 317 -21.35 316.45 -21.4 C 313.05 -21.7 310.1 -21.3 307.6 -20.05 C 307.15 -19.85 306.8 -20.05 306.8 -20.55 L 306.8 -27.6 C 306.8 -28.1 307.2 -28.5 307.7 -28.5 L 320.15 -28.5 C 320.7 -28.5 321.4 -27.95 321.95 -27.7 C 322.15 -27.6 322.25 -27.75 322.2 -27.9 L 319.8 -34.15 C 319.6 -34.65 319.05 -35 318.55 -35 L 299.65 -35 C 299.5 -35 299.4 -34.85 299.55 -34.7 C 300 -34.3 300.3 -33.75 300.3 -33.2 Z M 335.35 -33.2 L 335.35 -1.8 C 335.35 -1.25 335.05 -0.7 334.6 -0.3 C 334.45 -0.15 334.55 0 334.7 0 L 354.5 0 L 357 -6.45 L 357.25 -7.1 C 357.3 -7.25 357.2 -7.4 357 -7.3 C 356.45 -7.05 355.75 -6.5 355.2 -6.5 L 342.75 -6.5 C 342.25 -6.5 341.85 -6.9 341.85 -7.4 L 341.85 -33.2 C 341.85 -33.75 342.15 -34.3 342.6 -34.7 C 342.75 -34.85 342.65 -35 342.5 -35 L 334.7 -35 C 334.55 -35 334.45 -34.85 334.6 -34.7 C 335.05 -34.3 335.35 -33.75 335.35 -33.2 Z M 368.9 -33.2 L 368.9 -1.8 C 368.9 -1.25 368.6 -0.7 368.15 -0.3 C 368 -0.15 368.1 0 368.25 0 L 376.05 0 C 376.2 0 376.3 -0.15 376.15 -0.3 C 375.7 -0.7 375.4 -1.25 375.4 -1.8 L 375.4 -33.2 C 375.4 -33.75 375.7 -34.3 376.15 -34.7 C 376.3 -34.85 376.2 -35 376.05 -35 L 368.25 -35 C 368.1 -35 368 -34.85 368.15 -34.7 C 368.6 -34.3 368.9 -33.75 368.9 -33.2 Z M 407.95 0 L 416.5 0 C 416.65 0 416.75 -0.15 416.6 -0.3 C 416.15 -0.7 415.25 -1.1 414.95 -1.55 L 405.95 -17.85 C 405.7 -18.3 405.7 -19 405.95 -19.45 L 413.7 -33.45 C 414 -33.9 414.9 -34.3 415.35 -34.7 C 415.5 -34.85 415.4 -35 415.25 -35 L 406.7 -35 C 406.55 -35 406.45 -34.85 406.6 -34.7 C 407.05 -34.3 406.75 -33.9 406.45 -33.45 L 402.3 -25.95 C 402.05 -25.5 401.65 -25.5 401.4 -25.95 L 397.25 -33.45 C 396.95 -33.9 396.65 -34.3 397.1 -34.7 C 397.25 -34.85 397.15 -35 397 -35 L 388.45 -35 C 388.3 -35 388.2 -34.85 388.35 -34.7 C 388.8 -34.3 389.7 -33.9 390 -33.45 L 397.8 -19.45 C 398.05 -19 398.05 -18.3 397.8 -17.85 L 388.75 -1.55 C 388.45 -1.1 387.55 -0.7 387.1 -0.3 C 386.95 -0.15 387.05 0 387.2 0 L 395.75 0 C 395.9 0 396 -0.15 395.85 -0.3 C 395.4 -0.7 395.7 -1.1 396 -1.55 L 401.4 -11.3 C 401.65 -11.75 402.05 -11.75 402.3 -11.3 L 407.7 -1.55 C 408 -1.1 408.3 -0.7 407.85 -0.3 C 407.7 -0.15 407.8 0 407.95 0 Z" stroke-linecap="round" />
</g>
</g>
</g>
<g transform="matrix(1.8058181202562007 0 0 1.8058181202562007 640 425.2227971584127)" id="tagline-0d04ff0a-7757-4e99-8e70-e9b45e506f02-logo"  >
<g style=""  paint-order="stroke"   >
		<g transform="matrix(1 0 0 1 0 0)" id="tagline-0d04ff0a-7757-4e99-8e70-e9b45e506f02-logo-path-0"  >
<path style="stroke: none; stroke-width: 0; stroke-dasharray: none; stroke-linecap: butt; stroke-dashoffset: 0; stroke-linejoin: miter; stroke-miterlimit: 4; fill: rgb(0,186,177); fill-rule: nonzero; opacity: 1;"  paint-order="stroke"  transform=" translate(-355.4, 6.955)" d="M 15.13 -12.95 L 11.44 -12.95 Q 11.34 -14.03 10.53 -14.62 Q 9.72 -15.22 8.34 -15.22 L 8.34 -15.22 Q 7.4 -15.22 6.75 -14.95 Q 6.1 -14.69 5.76 -14.23 Q 5.42 -13.77 5.42 -13.18 L 5.42 -13.18 Q 5.4 -12.7 5.62 -12.33 Q 5.85 -11.97 6.25 -11.71 Q 6.65 -11.44 7.17 -11.25 Q 7.7 -11.06 8.29 -10.93 L 8.29 -10.93 L 9.93 -10.54 Q 11.12 -10.27 12.11 -9.83 Q 13.1 -9.38 13.83 -8.74 Q 14.56 -8.09 14.96 -7.21 Q 15.37 -6.33 15.38 -5.19 L 15.38 -5.19 Q 15.37 -3.52 14.53 -2.3 Q 13.69 -1.08 12.11 -0.41 Q 10.54 0.26 8.32 0.26 L 8.32 0.26 Q 6.12 0.26 4.49 -0.42 Q 2.86 -1.09 1.95 -2.42 Q 1.04 -3.75 0.99 -5.71 L 0.99 -5.71 L 4.71 -5.71 Q 4.78 -4.79 5.24 -4.19 Q 5.71 -3.58 6.49 -3.27 Q 7.28 -2.97 8.27 -2.97 L 8.27 -2.97 Q 9.25 -2.97 9.97 -3.25 Q 10.7 -3.53 11.1 -4.04 Q 11.5 -4.55 11.5 -5.2 L 11.5 -5.2 Q 11.5 -5.81 11.14 -6.23 Q 10.78 -6.65 10.09 -6.94 Q 9.4 -7.24 8.41 -7.48 L 8.41 -7.48 L 6.43 -7.97 Q 4.13 -8.53 2.8 -9.72 Q 1.46 -10.91 1.47 -12.93 L 1.47 -12.93 Q 1.46 -14.58 2.36 -15.81 Q 3.25 -17.05 4.81 -17.74 Q 6.37 -18.43 8.36 -18.43 L 8.36 -18.43 Q 10.39 -18.43 11.9 -17.74 Q 13.41 -17.05 14.26 -15.81 Q 15.1 -14.58 15.13 -12.95 L 15.13 -12.95 Z M 27.77 0.26 L 27.77 0.26 Q 26.46 0.26 25.44 -0.2 Q 24.42 -0.66 23.83 -1.56 Q 23.24 -2.46 23.24 -3.81 L 23.24 -3.81 Q 23.24 -4.94 23.66 -5.72 Q 24.08 -6.49 24.79 -6.96 Q 25.51 -7.43 26.43 -7.67 Q 27.35 -7.91 28.36 -8.01 L 28.36 -8.01 Q 29.55 -8.13 30.28 -8.24 Q 31.01 -8.35 31.34 -8.58 Q 31.67 -8.8 31.67 -9.23 L 31.67 -9.23 L 31.67 -9.29 Q 31.67 -10.13 31.14 -10.59 Q 30.61 -11.05 29.64 -11.05 L 29.64 -11.05 Q 28.62 -11.05 28.02 -10.6 Q 27.41 -10.16 27.22 -9.48 L 27.22 -9.48 L 23.72 -9.77 Q 23.99 -11.01 24.77 -11.92 Q 25.55 -12.83 26.79 -13.32 Q 28.03 -13.81 29.66 -13.81 L 29.66 -13.81 Q 30.8 -13.81 31.84 -13.55 Q 32.88 -13.28 33.69 -12.72 Q 34.51 -12.16 34.98 -11.29 Q 35.45 -10.41 35.45 -9.2 L 35.45 -9.2 L 35.45 0 L 31.86 0 L 31.86 -1.89 L 31.75 -1.89 Q 31.43 -1.25 30.88 -0.77 Q 30.33 -0.28 29.55 -0.01 Q 28.78 0.26 27.77 0.26 Z M 28.85 -2.35 L 28.85 -2.35 Q 29.69 -2.35 30.33 -2.69 Q 30.96 -3.02 31.33 -3.59 Q 31.69 -4.15 31.69 -4.87 L 31.69 -4.87 L 31.69 -6.32 Q 31.51 -6.21 31.21 -6.11 Q 30.9 -6.02 30.52 -5.94 Q 30.14 -5.87 29.76 -5.81 Q 29.38 -5.75 29.06 -5.71 L 29.06 -5.71 Q 28.4 -5.61 27.9 -5.4 Q 27.4 -5.18 27.13 -4.83 Q 26.85 -4.47 26.85 -3.93 L 26.85 -3.93 Q 26.85 -3.16 27.42 -2.76 Q 27.98 -2.35 28.85 -2.35 Z M 52.6 -13.64 L 56.6 -13.64 L 51.83 0 L 47.57 0 L 42.81 -13.64 L 46.8 -13.64 L 49.63 -3.88 L 49.78 -3.88 L 52.6 -13.64 Z M 68.32 0 L 64.54 0 L 64.54 -13.64 L 68.32 -13.64 L 68.32 0 Z M 66.45 -15.39 L 66.45 -15.39 Q 65.6 -15.39 65 -15.96 Q 64.4 -16.52 64.4 -17.31 L 64.4 -17.31 Q 64.4 -18.09 65 -18.66 Q 65.6 -19.22 66.44 -19.22 L 66.44 -19.22 Q 67.29 -19.22 67.89 -18.66 Q 68.49 -18.09 68.49 -17.31 L 68.49 -17.31 Q 68.49 -16.52 67.89 -15.96 Q 67.29 -15.39 66.45 -15.39 Z M 81.12 -7.88 L 81.12 -7.88 L 81.12 0 L 77.34 0 L 77.34 -13.64 L 80.94 -13.64 L 80.94 -11.23 L 81.1 -11.23 Q 81.56 -12.42 82.62 -13.12 Q 83.69 -13.81 85.2 -13.81 L 85.2 -13.81 Q 86.62 -13.81 87.68 -13.19 Q 88.74 -12.57 89.32 -11.42 Q 89.91 -10.27 89.91 -8.68 L 89.91 -8.68 L 89.91 0 L 86.13 0 L 86.13 -8.01 Q 86.14 -9.26 85.49 -9.97 Q 84.84 -10.67 83.7 -10.67 L 83.7 -10.67 Q 82.94 -10.67 82.36 -10.34 Q 81.78 -10.01 81.45 -9.39 Q 81.13 -8.76 81.12 -7.88 Z M 105.03 5.31 L 105.03 5.31 Q 103.19 5.31 101.88 4.81 Q 100.57 4.31 99.8 3.47 Q 99.03 2.63 98.79 1.6 L 98.79 1.6 L 102.29 1.13 Q 102.45 1.5 102.8 1.83 Q 103.14 2.17 103.72 2.38 Q 104.29 2.59 105.12 2.59 L 105.12 2.59 Q 106.35 2.59 107.15 2.01 Q 107.96 1.42 107.96 0.08 L 107.96 0.08 L 107.96 -2.41 L 107.8 -2.41 Q 107.55 -1.85 107.05 -1.34 Q 106.55 -0.83 105.77 -0.51 Q 104.99 -0.2 103.91 -0.2 L 103.91 -0.2 Q 102.37 -0.2 101.12 -0.91 Q 99.86 -1.62 99.12 -3.1 Q 98.38 -4.58 98.38 -6.84 L 98.38 -6.84 Q 98.38 -9.16 99.13 -10.72 Q 99.89 -12.27 101.14 -13.04 Q 102.4 -13.81 103.9 -13.81 L 103.9 -13.81 Q 105.04 -13.81 105.82 -13.43 Q 106.59 -13.04 107.06 -12.47 Q 107.54 -11.9 107.8 -11.35 L 107.8 -11.35 L 107.94 -11.35 L 107.94 -13.64 L 111.69 -13.64 L 111.69 0.13 Q 111.69 1.84 110.84 2.99 Q 109.99 4.14 108.48 4.72 Q 106.98 5.31 105.03 5.31 Z M 105.11 -3.04 L 105.11 -3.04 Q 106.02 -3.04 106.66 -3.49 Q 107.29 -3.95 107.63 -4.81 Q 107.97 -5.66 107.97 -6.86 L 107.97 -6.86 Q 107.97 -8.06 107.64 -8.94 Q 107.3 -9.83 106.66 -10.32 Q 106.02 -10.8 105.11 -10.8 L 105.11 -10.8 Q 104.17 -10.8 103.54 -10.3 Q 102.9 -9.8 102.57 -8.91 Q 102.24 -8.03 102.24 -6.86 L 102.24 -6.86 Q 102.24 -5.68 102.57 -4.83 Q 102.9 -3.97 103.54 -3.5 Q 104.17 -3.04 105.11 -3.04 Z M 131.55 -13.64 L 139.76 -13.64 L 139.76 -10.8 L 131.55 -10.8 L 131.55 -13.64 Z M 133.42 -3.69 L 133.42 -16.9 L 137.2 -16.9 L 137.2 -4.19 Q 137.2 -3.67 137.36 -3.38 Q 137.52 -3.09 137.81 -2.97 Q 138.09 -2.86 138.48 -2.86 L 138.48 -2.86 Q 138.74 -2.86 139.01 -2.91 Q 139.27 -2.96 139.42 -2.98 L 139.42 -2.98 L 140.01 -0.17 Q 139.73 -0.08 139.21 0.04 Q 138.7 0.16 137.96 0.19 L 137.96 0.19 Q 136.59 0.24 135.57 -0.18 Q 134.54 -0.59 133.97 -1.47 Q 133.41 -2.35 133.42 -3.69 L 133.42 -3.69 Z M 152.29 -7.88 L 152.29 -7.88 L 152.29 0 L 148.51 0 L 148.51 -18.18 L 152.18 -18.18 L 152.18 -11.23 L 152.34 -11.23 Q 152.8 -12.44 153.83 -13.13 Q 154.86 -13.81 156.42 -13.81 L 156.42 -13.81 Q 157.84 -13.81 158.9 -13.2 Q 159.96 -12.58 160.55 -11.43 Q 161.14 -10.28 161.13 -8.68 L 161.13 -8.68 L 161.13 0 L 157.35 0 L 157.35 -8.01 Q 157.36 -9.27 156.71 -9.97 Q 156.07 -10.67 154.92 -10.67 L 154.92 -10.67 Q 154.14 -10.67 153.55 -10.34 Q 152.96 -10.01 152.63 -9.39 Q 152.3 -8.76 152.29 -7.88 Z M 176.33 0.27 L 176.33 0.27 Q 174.22 0.27 172.71 -0.59 Q 171.2 -1.45 170.38 -3.02 Q 169.56 -4.6 169.56 -6.76 L 169.56 -6.76 Q 169.56 -8.86 170.38 -10.45 Q 171.2 -12.04 172.68 -12.93 Q 174.17 -13.81 176.18 -13.81 L 176.18 -13.81 Q 177.53 -13.81 178.69 -13.38 Q 179.86 -12.95 180.74 -12.09 Q 181.61 -11.23 182.1 -9.93 Q 182.59 -8.63 182.59 -6.89 L 182.59 -6.89 L 182.59 -5.85 L 171.07 -5.85 L 171.07 -8.19 L 179.03 -8.19 Q 179.03 -9.01 178.67 -9.64 Q 178.32 -10.27 177.69 -10.63 Q 177.06 -10.99 176.24 -10.99 L 176.24 -10.99 Q 175.38 -10.99 174.72 -10.6 Q 174.06 -10.2 173.68 -9.54 Q 173.31 -8.88 173.3 -8.07 L 173.3 -8.07 L 173.3 -5.84 Q 173.3 -4.83 173.68 -4.09 Q 174.06 -3.36 174.75 -2.96 Q 175.44 -2.56 176.39 -2.56 L 176.39 -2.56 Q 177.02 -2.56 177.54 -2.73 Q 178.07 -2.91 178.44 -3.27 Q 178.81 -3.62 179.01 -4.14 L 179.01 -4.14 L 182.51 -3.91 Q 182.24 -2.65 181.42 -1.71 Q 180.6 -0.77 179.31 -0.25 Q 178.01 0.27 176.33 0.27 Z M 209.54 0 L 205.54 0 L 201.83 -13.64 L 205.66 -13.64 L 207.77 -4.47 L 207.89 -4.47 L 210.1 -13.64 L 213.85 -13.64 L 216.09 -4.53 L 216.2 -4.53 L 218.28 -13.64 L 222.1 -13.64 L 218.4 0 L 214.39 0 L 212.05 -8.58 L 211.88 -8.58 L 209.54 0 Z M 235.93 0.27 L 235.93 0.27 Q 233.86 0.27 232.36 -0.62 Q 230.85 -1.5 230.03 -3.09 Q 229.22 -4.67 229.22 -6.76 L 229.22 -6.76 Q 229.22 -8.88 230.03 -10.46 Q 230.85 -12.05 232.36 -12.93 Q 233.86 -13.81 235.93 -13.81 L 235.93 -13.81 Q 238 -13.81 239.5 -12.93 Q 241.01 -12.05 241.82 -10.46 Q 242.64 -8.88 242.64 -6.76 L 242.64 -6.76 Q 242.64 -4.67 241.82 -3.09 Q 241.01 -1.5 239.5 -0.62 Q 238 0.27 235.93 0.27 Z M 235.95 -2.66 L 235.95 -2.66 Q 236.89 -2.66 237.52 -3.2 Q 238.15 -3.74 238.47 -4.67 Q 238.8 -5.6 238.8 -6.79 L 238.8 -6.79 Q 238.8 -7.98 238.47 -8.91 Q 238.15 -9.85 237.52 -10.39 Q 236.89 -10.93 235.95 -10.93 L 235.95 -10.93 Q 235 -10.93 234.35 -10.39 Q 233.71 -9.85 233.39 -8.91 Q 233.06 -7.98 233.06 -6.79 L 233.06 -6.79 Q 233.06 -5.6 233.39 -4.67 Q 233.71 -3.74 234.35 -3.2 Q 235 -2.66 235.95 -2.66 Z M 254.89 0 L 251.11 0 L 251.11 -13.64 L 254.78 -13.64 L 254.78 -11.26 L 254.92 -11.26 Q 255.29 -12.53 256.17 -13.18 Q 257.05 -13.83 258.19 -13.83 L 258.19 -13.83 Q 258.48 -13.83 258.81 -13.8 Q 259.13 -13.76 259.38 -13.7 L 259.38 -13.7 L 259.38 -10.34 Q 259.12 -10.42 258.65 -10.48 Q 258.18 -10.55 257.79 -10.55 L 257.79 -10.55 Q 256.95 -10.55 256.3 -10.19 Q 255.65 -9.83 255.27 -9.19 Q 254.89 -8.55 254.89 -7.71 L 254.89 -7.71 L 254.89 0 Z M 267.33 -18.18 L 271.11 -18.18 L 271.11 0 L 267.33 0 L 267.33 -18.18 Z M 285.15 0.22 L 285.15 0.22 Q 283.6 0.22 282.34 -0.58 Q 281.09 -1.38 280.35 -2.95 Q 279.62 -4.52 279.62 -6.8 L 279.62 -6.8 Q 279.62 -9.14 280.38 -10.7 Q 281.13 -12.26 282.39 -13.04 Q 283.64 -13.81 285.14 -13.81 L 285.14 -13.81 Q 286.29 -13.81 287.06 -13.43 Q 287.82 -13.04 288.3 -12.47 Q 288.77 -11.9 289.02 -11.35 L 289.02 -11.35 L 289.14 -11.35 L 289.14 -18.18 L 292.91 -18.18 L 292.91 0 L 289.18 0 L 289.18 -2.18 L 289.02 -2.18 Q 288.76 -1.62 288.27 -1.06 Q 287.79 -0.51 287.02 -0.14 Q 286.25 0.22 285.15 0.22 Z M 286.35 -2.79 L 286.35 -2.79 Q 287.27 -2.79 287.9 -3.29 Q 288.54 -3.79 288.88 -4.7 Q 289.22 -5.6 289.22 -6.82 L 289.22 -6.82 Q 289.22 -8.03 288.88 -8.93 Q 288.54 -9.83 287.9 -10.32 Q 287.27 -10.8 286.35 -10.8 L 286.35 -10.8 Q 285.42 -10.8 284.78 -10.3 Q 284.14 -9.79 283.81 -8.9 Q 283.48 -8 283.48 -6.82 L 283.48 -6.82 Q 283.48 -5.63 283.82 -4.72 Q 284.15 -3.81 284.78 -3.3 Q 285.42 -2.79 286.35 -2.79 Z M 304.22 0.23 L 304.22 0.23 Q 303.34 0.23 302.72 -0.4 Q 302.09 -1.02 302.09 -1.9 L 302.09 -1.9 Q 302.09 -2.77 302.72 -3.39 Q 303.34 -4.01 304.22 -4.01 L 304.22 -4.01 Q 305.07 -4.01 305.71 -3.39 Q 306.35 -2.77 306.35 -1.9 L 306.35 -1.9 Q 306.35 -1.31 306.05 -0.83 Q 305.76 -0.35 305.28 -0.06 Q 304.8 0.23 304.22 0.23 Z M 343.17 -9.09 L 343.17 -9.09 Q 343.17 -6.12 342.05 -4.03 Q 340.93 -1.94 339 -0.85 Q 337.07 0.25 334.66 0.25 L 334.66 0.25 Q 332.24 0.25 330.31 -0.85 Q 328.38 -1.95 327.26 -4.04 Q 326.15 -6.13 326.15 -9.09 L 326.15 -9.09 Q 326.15 -12.06 327.26 -14.15 Q 328.38 -16.24 330.31 -17.33 Q 332.24 -18.43 334.66 -18.43 L 334.66 -18.43 Q 337.07 -18.43 339 -17.33 Q 340.93 -16.24 342.05 -14.15 Q 343.17 -12.06 343.17 -9.09 Z M 339.28 -9.09 L 339.28 -9.09 Q 339.28 -11.02 338.7 -12.34 Q 338.13 -13.66 337.09 -14.35 Q 336.05 -15.03 334.66 -15.03 L 334.66 -15.03 Q 333.27 -15.03 332.23 -14.35 Q 331.19 -13.66 330.62 -12.34 Q 330.04 -11.02 330.04 -9.09 L 330.04 -9.09 Q 330.04 -7.16 330.62 -5.84 Q 331.19 -4.52 332.23 -3.84 Q 333.27 -3.15 334.66 -3.15 L 334.66 -3.15 Q 336.05 -3.15 337.09 -3.84 Q 338.13 -4.52 338.7 -5.84 Q 339.28 -7.16 339.28 -9.09 Z M 355.73 -7.88 L 355.73 -7.88 L 355.73 0 L 351.94 0 L 351.94 -13.64 L 355.55 -13.64 L 355.55 -11.23 L 355.71 -11.23 Q 356.16 -12.42 357.23 -13.12 Q 358.29 -13.81 359.81 -13.81 L 359.81 -13.81 Q 361.23 -13.81 362.29 -13.19 Q 363.34 -12.57 363.93 -11.42 Q 364.51 -10.27 364.51 -8.68 L 364.51 -8.68 L 364.51 0 L 360.73 0 L 360.73 -8.01 Q 360.74 -9.26 360.09 -9.97 Q 359.45 -10.67 358.31 -10.67 L 358.31 -10.67 Q 357.55 -10.67 356.96 -10.34 Q 356.38 -10.01 356.06 -9.39 Q 355.73 -8.76 355.73 -7.88 Z M 379.7 0.27 L 379.7 0.27 Q 377.6 0.27 376.09 -0.59 Q 374.57 -1.45 373.76 -3.02 Q 372.94 -4.6 372.94 -6.76 L 372.94 -6.76 Q 372.94 -8.86 373.76 -10.45 Q 374.57 -12.04 376.06 -12.93 Q 377.55 -13.81 379.55 -13.81 L 379.55 -13.81 Q 380.9 -13.81 382.07 -13.38 Q 383.24 -12.95 384.11 -12.09 Q 384.99 -11.23 385.47 -9.93 Q 385.96 -8.63 385.96 -6.89 L 385.96 -6.89 L 385.96 -5.85 L 374.45 -5.85 L 374.45 -8.19 L 382.4 -8.19 Q 382.4 -9.01 382.05 -9.64 Q 381.69 -10.27 381.07 -10.63 Q 380.44 -10.99 379.61 -10.99 L 379.61 -10.99 Q 378.75 -10.99 378.09 -10.6 Q 377.43 -10.2 377.06 -9.54 Q 376.69 -8.88 376.68 -8.07 L 376.68 -8.07 L 376.68 -5.84 Q 376.68 -4.83 377.05 -4.09 Q 377.43 -3.36 378.12 -2.96 Q 378.82 -2.56 379.77 -2.56 L 379.77 -2.56 Q 380.4 -2.56 380.92 -2.73 Q 381.44 -2.91 381.82 -3.27 Q 382.19 -3.62 382.38 -4.14 L 382.38 -4.14 L 385.88 -3.91 Q 385.62 -2.65 384.79 -1.71 Q 383.97 -0.77 382.68 -0.25 Q 381.39 0.27 379.7 0.27 Z M 410.01 5.11 L 406.23 5.11 L 406.23 -13.64 L 409.96 -13.64 L 409.96 -11.35 L 410.13 -11.35 Q 410.37 -11.9 410.85 -12.47 Q 411.32 -13.04 412.09 -13.43 Q 412.86 -13.81 414 -13.81 L 414 -13.81 Q 415.5 -13.81 416.76 -13.04 Q 418.02 -12.26 418.77 -10.7 Q 419.53 -9.14 419.53 -6.8 L 419.53 -6.8 Q 419.53 -4.52 418.79 -2.95 Q 418.06 -1.38 416.81 -0.58 Q 415.55 0.22 414 0.22 L 414 0.22 Q 412.89 0.22 412.13 -0.14 Q 411.36 -0.51 410.87 -1.06 Q 410.38 -1.62 410.13 -2.18 L 410.13 -2.18 L 410.01 -2.18 L 410.01 5.11 Z M 409.93 -6.82 L 409.93 -6.82 Q 409.93 -5.6 410.27 -4.7 Q 410.6 -3.79 411.24 -3.29 Q 411.88 -2.79 412.8 -2.79 L 412.8 -2.79 Q 413.72 -2.79 414.36 -3.3 Q 415 -3.81 415.33 -4.72 Q 415.66 -5.63 415.66 -6.82 L 415.66 -6.82 Q 415.66 -8 415.34 -8.9 Q 415.01 -9.79 414.37 -10.3 Q 413.73 -10.8 412.8 -10.8 L 412.8 -10.8 Q 411.87 -10.8 411.24 -10.32 Q 410.6 -9.83 410.27 -8.93 Q 409.93 -8.03 409.93 -6.82 Z M 431.82 0 L 428.04 0 L 428.04 -13.64 L 431.71 -13.64 L 431.71 -11.26 L 431.85 -11.26 Q 432.22 -12.53 433.1 -13.18 Q 433.98 -13.83 435.12 -13.83 L 435.12 -13.83 Q 435.41 -13.83 435.74 -13.8 Q 436.06 -13.76 436.31 -13.7 L 436.31 -13.7 L 436.31 -10.34 Q 436.05 -10.42 435.58 -10.48 Q 435.11 -10.55 434.72 -10.55 L 434.72 -10.55 Q 433.88 -10.55 433.23 -10.19 Q 432.58 -9.83 432.2 -9.19 Q 431.82 -8.55 431.82 -7.71 L 431.82 -7.71 L 431.82 0 Z M 449.78 0.27 L 449.78 0.27 Q 447.71 0.27 446.21 -0.62 Q 444.7 -1.5 443.88 -3.09 Q 443.07 -4.67 443.07 -6.76 L 443.07 -6.76 Q 443.07 -8.88 443.88 -10.46 Q 444.7 -12.05 446.21 -12.93 Q 447.71 -13.81 449.78 -13.81 L 449.78 -13.81 Q 451.85 -13.81 453.35 -12.93 Q 454.86 -12.05 455.67 -10.46 Q 456.49 -8.88 456.49 -6.76 L 456.49 -6.76 Q 456.49 -4.67 455.67 -3.09 Q 454.86 -1.5 453.35 -0.62 Q 451.85 0.27 449.78 0.27 Z M 449.8 -2.66 L 449.8 -2.66 Q 450.74 -2.66 451.37 -3.2 Q 452 -3.74 452.32 -4.67 Q 452.65 -5.6 452.65 -6.79 L 452.65 -6.79 Q 452.65 -7.98 452.32 -8.91 Q 452 -9.85 451.37 -10.39 Q 450.74 -10.93 449.8 -10.93 L 449.8 -10.93 Q 448.85 -10.93 448.2 -10.39 Q 447.56 -9.85 447.24 -8.91 Q 446.91 -7.98 446.91 -6.79 L 446.91 -6.79 Q 446.91 -5.6 447.24 -4.67 Q 447.56 -3.74 448.2 -3.2 Q 448.85 -2.66 449.8 -2.66 Z M 464.96 0.57 L 464.96 -13.64 L 468.74 -13.64 L 468.74 0.63 Q 468.74 2.21 468.12 3.2 Q 467.49 4.2 466.32 4.66 Q 465.15 5.11 463.51 5.07 L 463.51 5.07 Q 463.36 5.07 463.2 5.07 Q 463.03 5.07 462.81 5.05 L 462.81 5.05 L 462.81 2.1 Q 462.96 2.1 463.07 2.11 Q 463.18 2.11 463.31 2.11 L 463.31 2.11 Q 464.22 2.11 464.59 1.73 Q 464.96 1.34 464.96 0.57 L 464.96 0.57 Z M 466.85 -15.39 L 466.85 -15.39 Q 466.01 -15.39 465.4 -15.96 Q 464.8 -16.52 464.8 -17.31 L 464.8 -17.31 Q 464.8 -18.09 465.4 -18.66 Q 466.01 -19.22 466.84 -19.22 L 466.84 -19.22 Q 467.69 -19.22 468.29 -18.66 Q 468.89 -18.09 468.89 -17.31 L 468.89 -17.31 Q 468.89 -16.52 468.29 -15.96 Q 467.69 -15.39 466.85 -15.39 Z M 483.97 0.27 L 483.97 0.27 Q 481.87 0.27 480.36 -0.59 Q 478.84 -1.45 478.03 -3.02 Q 477.21 -4.6 477.21 -6.76 L 477.21 -6.76 Q 477.21 -8.86 478.03 -10.45 Q 478.84 -12.04 480.33 -12.93 Q 481.82 -13.81 483.82 -13.81 L 483.82 -13.81 Q 485.17 -13.81 486.34 -13.38 Q 487.51 -12.95 488.38 -12.09 Q 489.26 -11.23 489.74 -9.93 Q 490.23 -8.63 490.23 -6.89 L 490.23 -6.89 L 490.23 -5.85 L 478.72 -5.85 L 478.72 -8.19 L 486.67 -8.19 Q 486.67 -9.01 486.32 -9.64 Q 485.96 -10.27 485.34 -10.63 Q 484.71 -10.99 483.89 -10.99 L 483.89 -10.99 Q 483.02 -10.99 482.36 -10.6 Q 481.7 -10.2 481.33 -9.54 Q 480.96 -8.88 480.95 -8.07 L 480.95 -8.07 L 480.95 -5.84 Q 480.95 -4.83 481.32 -4.09 Q 481.7 -3.36 482.39 -2.96 Q 483.09 -2.56 484.04 -2.56 L 484.04 -2.56 Q 484.67 -2.56 485.19 -2.73 Q 485.71 -2.91 486.09 -3.27 Q 486.46 -3.62 486.66 -4.14 L 486.66 -4.14 L 490.15 -3.91 Q 489.89 -2.65 489.07 -1.71 Q 488.24 -0.77 486.95 -0.25 Q 485.66 0.27 483.97 0.27 Z M 504.86 0.27 L 504.86 0.27 Q 502.77 0.27 501.26 -0.63 Q 499.76 -1.52 498.95 -3.11 Q 498.15 -4.7 498.15 -6.76 L 498.15 -6.76 Q 498.15 -8.86 498.96 -10.44 Q 499.78 -12.03 501.28 -12.92 Q 502.78 -13.81 504.84 -13.81 L 504.84 -13.81 Q 506.63 -13.81 507.97 -13.17 Q 509.31 -12.52 510.09 -11.35 Q 510.87 -10.17 510.95 -8.59 L 510.95 -8.59 L 507.38 -8.59 Q 507.23 -9.61 506.59 -10.24 Q 505.95 -10.87 504.91 -10.87 L 504.91 -10.87 Q 504.03 -10.87 503.38 -10.39 Q 502.72 -9.92 502.36 -9.01 Q 501.99 -8.11 501.99 -6.82 L 501.99 -6.82 Q 501.99 -5.51 502.35 -4.6 Q 502.71 -3.68 503.37 -3.2 Q 504.03 -2.73 504.91 -2.73 L 504.91 -2.73 Q 505.55 -2.73 506.07 -2.99 Q 506.59 -3.26 506.94 -3.77 Q 507.28 -4.28 507.38 -5 L 507.38 -5 L 510.95 -5 Q 510.86 -3.44 510.1 -2.25 Q 509.35 -1.07 508.01 -0.4 Q 506.68 0.27 504.86 0.27 Z M 518.43 -13.64 L 526.64 -13.64 L 526.64 -10.8 L 518.43 -10.8 L 518.43 -13.64 Z M 520.29 -3.69 L 520.29 -16.9 L 524.07 -16.9 L 524.07 -4.19 Q 524.07 -3.67 524.23 -3.38 Q 524.39 -3.09 524.68 -2.97 Q 524.97 -2.86 525.35 -2.86 L 525.35 -2.86 Q 525.62 -2.86 525.88 -2.91 Q 526.15 -2.96 526.29 -2.98 L 526.29 -2.98 L 526.89 -0.17 Q 526.6 -0.08 526.09 0.04 Q 525.57 0.16 524.84 0.19 L 524.84 0.19 Q 523.47 0.24 522.44 -0.18 Q 521.42 -0.59 520.85 -1.47 Q 520.28 -2.35 520.29 -3.69 L 520.29 -3.69 Z M 550.78 0.26 L 550.78 0.26 Q 549.48 0.26 548.46 -0.2 Q 547.44 -0.66 546.85 -1.56 Q 546.26 -2.46 546.26 -3.81 L 546.26 -3.81 Q 546.26 -4.94 546.67 -5.72 Q 547.09 -6.49 547.81 -6.96 Q 548.53 -7.43 549.45 -7.67 Q 550.37 -7.91 551.38 -8.01 L 551.38 -8.01 Q 552.57 -8.13 553.3 -8.24 Q 554.02 -8.35 554.35 -8.58 Q 554.68 -8.8 554.68 -9.23 L 554.68 -9.23 L 554.68 -9.29 Q 554.68 -10.13 554.15 -10.59 Q 553.62 -11.05 552.66 -11.05 L 552.66 -11.05 Q 551.64 -11.05 551.03 -10.6 Q 550.43 -10.16 550.23 -9.48 L 550.23 -9.48 L 546.73 -9.77 Q 547 -11.01 547.78 -11.92 Q 548.56 -12.83 549.8 -13.32 Q 551.04 -13.81 552.67 -13.81 L 552.67 -13.81 Q 553.81 -13.81 554.85 -13.55 Q 555.9 -13.28 556.71 -12.72 Q 557.52 -12.16 557.99 -11.29 Q 558.46 -10.41 558.46 -9.2 L 558.46 -9.2 L 558.46 0 L 554.88 0 L 554.88 -1.89 L 554.77 -1.89 Q 554.44 -1.25 553.89 -0.77 Q 553.34 -0.28 552.57 -0.01 Q 551.8 0.26 550.78 0.26 Z M 551.87 -2.35 L 551.87 -2.35 Q 552.7 -2.35 553.34 -2.69 Q 553.98 -3.02 554.34 -3.59 Q 554.71 -4.15 554.71 -4.87 L 554.71 -4.87 L 554.71 -6.32 Q 554.53 -6.21 554.22 -6.11 Q 553.92 -6.02 553.54 -5.94 Q 553.15 -5.87 552.77 -5.81 Q 552.39 -5.75 552.08 -5.71 L 552.08 -5.71 Q 551.41 -5.61 550.92 -5.4 Q 550.42 -5.18 550.14 -4.83 Q 549.87 -4.47 549.87 -3.93 L 549.87 -3.93 Q 549.87 -3.16 550.43 -2.76 Q 551 -2.35 551.87 -2.35 Z M 566.44 -13.64 L 574.65 -13.64 L 574.65 -10.8 L 566.44 -10.8 L 566.44 -13.64 Z M 568.31 -3.69 L 568.31 -16.9 L 572.09 -16.9 L 572.09 -4.19 Q 572.09 -3.67 572.25 -3.38 Q 572.41 -3.09 572.7 -2.97 Q 572.99 -2.86 573.37 -2.86 L 573.37 -2.86 Q 573.63 -2.86 573.9 -2.91 Q 574.17 -2.96 574.31 -2.98 L 574.31 -2.98 L 574.9 -0.17 Q 574.62 -0.08 574.1 0.04 Q 573.59 0.16 572.85 0.19 L 572.85 0.19 Q 571.48 0.24 570.46 -0.18 Q 569.43 -0.59 568.87 -1.47 Q 568.3 -2.35 568.31 -3.69 L 568.31 -3.69 Z M 598.8 0.26 L 598.8 0.26 Q 597.49 0.26 596.47 -0.2 Q 595.45 -0.66 594.86 -1.56 Q 594.27 -2.46 594.27 -3.81 L 594.27 -3.81 Q 594.27 -4.94 594.69 -5.72 Q 595.11 -6.49 595.82 -6.96 Q 596.54 -7.43 597.46 -7.67 Q 598.38 -7.91 599.39 -8.01 L 599.39 -8.01 Q 600.58 -8.13 601.31 -8.24 Q 602.04 -8.35 602.37 -8.58 Q 602.7 -8.8 602.7 -9.23 L 602.7 -9.23 L 602.7 -9.29 Q 602.7 -10.13 602.17 -10.59 Q 601.64 -11.05 600.67 -11.05 L 600.67 -11.05 Q 599.65 -11.05 599.05 -10.6 Q 598.44 -10.16 598.25 -9.48 L 598.25 -9.48 L 594.75 -9.77 Q 595.02 -11.01 595.8 -11.92 Q 596.58 -12.83 597.82 -13.32 Q 599.06 -13.81 600.69 -13.81 L 600.69 -13.81 Q 601.83 -13.81 602.87 -13.55 Q 603.91 -13.28 604.72 -12.72 Q 605.54 -12.16 606.01 -11.29 Q 606.48 -10.41 606.48 -9.2 L 606.48 -9.2 L 606.48 0 L 602.89 0 L 602.89 -1.89 L 602.79 -1.89 Q 602.46 -1.25 601.91 -0.77 Q 601.36 -0.28 600.58 -0.01 Q 599.81 0.26 598.8 0.26 Z M 599.88 -2.35 L 599.88 -2.35 Q 600.72 -2.35 601.36 -2.69 Q 602 -3.02 602.36 -3.59 Q 602.72 -4.15 602.72 -4.87 L 602.72 -4.87 L 602.72 -6.32 Q 602.55 -6.21 602.24 -6.11 Q 601.93 -6.02 601.55 -5.94 Q 601.17 -5.87 600.79 -5.81 Q 600.41 -5.75 600.1 -5.71 L 600.1 -5.71 Q 599.43 -5.61 598.93 -5.4 Q 598.44 -5.18 598.16 -4.83 Q 597.88 -4.47 597.88 -3.93 L 597.88 -3.93 Q 597.88 -3.16 598.45 -2.76 Q 599.01 -2.35 599.88 -2.35 Z M 626.26 -13.64 L 634.47 -13.64 L 634.47 -10.8 L 626.26 -10.8 L 626.26 -13.64 Z M 628.12 -3.69 L 628.12 -16.9 L 631.9 -16.9 L 631.9 -4.19 Q 631.9 -3.67 632.06 -3.38 Q 632.22 -3.09 632.51 -2.97 Q 632.8 -2.86 633.18 -2.86 L 633.18 -2.86 Q 633.45 -2.86 633.71 -2.91 Q 633.98 -2.96 634.12 -2.98 L 634.12 -2.98 L 634.72 -0.17 Q 634.43 -0.08 633.92 0.04 Q 633.4 0.16 632.67 0.19 L 632.67 0.19 Q 631.3 0.24 630.27 -0.18 Q 629.25 -0.59 628.68 -1.47 Q 628.11 -2.35 628.12 -3.69 L 628.12 -3.69 Z M 646.71 0 L 642.93 0 L 642.93 -13.64 L 646.71 -13.64 L 646.71 0 Z M 644.84 -15.39 L 644.84 -15.39 Q 643.99 -15.39 643.39 -15.96 Q 642.78 -16.52 642.78 -17.31 L 642.78 -17.31 Q 642.78 -18.09 643.39 -18.66 Q 643.99 -19.22 644.83 -19.22 L 644.83 -19.22 Q 645.68 -19.22 646.28 -18.66 Q 646.88 -18.09 646.88 -17.31 L 646.88 -17.31 Q 646.88 -16.52 646.28 -15.96 Q 645.68 -15.39 644.84 -15.39 Z M 659.51 0 L 655.73 0 L 655.73 -13.64 L 659.33 -13.64 L 659.33 -11.23 L 659.49 -11.23 Q 659.92 -12.43 660.91 -13.12 Q 661.91 -13.81 663.29 -13.81 L 663.29 -13.81 Q 664.69 -13.81 665.68 -13.12 Q 666.66 -12.42 666.99 -11.23 L 666.99 -11.23 L 667.13 -11.23 Q 667.55 -12.4 668.65 -13.11 Q 669.75 -13.81 671.25 -13.81 L 671.25 -13.81 Q 673.15 -13.81 674.35 -12.6 Q 675.54 -11.39 675.54 -9.17 L 675.54 -9.17 L 675.54 0 L 671.77 0 L 671.77 -8.43 Q 671.77 -9.56 671.17 -10.13 Q 670.56 -10.7 669.66 -10.7 L 669.66 -10.7 Q 668.63 -10.7 668.05 -10.05 Q 667.47 -9.39 667.47 -8.33 L 667.47 -8.33 L 667.47 0 L 663.81 0 L 663.81 -8.5 Q 663.81 -9.51 663.23 -10.1 Q 662.66 -10.7 661.73 -10.7 L 661.73 -10.7 Q 661.1 -10.7 660.6 -10.38 Q 660.09 -10.07 659.8 -9.5 Q 659.51 -8.94 659.51 -8.19 L 659.51 -8.19 L 659.51 0 Z M 690.74 0.27 L 690.74 0.27 Q 688.64 0.27 687.12 -0.59 Q 685.61 -1.45 684.79 -3.02 Q 683.97 -4.6 683.97 -6.76 L 683.97 -6.76 Q 683.97 -8.86 684.79 -10.45 Q 685.61 -12.04 687.1 -12.93 Q 688.58 -13.81 690.59 -13.81 L 690.59 -13.81 Q 691.94 -13.81 693.11 -13.38 Q 694.27 -12.95 695.15 -12.09 Q 696.02 -11.23 696.51 -9.93 Q 697 -8.63 697 -6.89 L 697 -6.89 L 697 -5.85 L 685.48 -5.85 L 685.48 -8.19 L 693.44 -8.19 Q 693.44 -9.01 693.08 -9.64 Q 692.73 -10.27 692.1 -10.63 Q 691.48 -10.99 690.65 -10.99 L 690.65 -10.99 Q 689.79 -10.99 689.13 -10.6 Q 688.47 -10.2 688.09 -9.54 Q 687.72 -8.88 687.71 -8.07 L 687.71 -8.07 L 687.71 -5.84 Q 687.71 -4.83 688.09 -4.09 Q 688.47 -3.36 689.16 -2.96 Q 689.85 -2.56 690.8 -2.56 L 690.8 -2.56 Q 691.43 -2.56 691.96 -2.73 Q 692.48 -2.91 692.85 -3.27 Q 693.23 -3.62 693.42 -4.14 L 693.42 -4.14 L 696.92 -3.91 Q 696.65 -2.65 695.83 -1.71 Q 695.01 -0.77 693.72 -0.25 Q 692.43 0.27 690.74 0.27 Z M 707.68 0.23 L 707.68 0.23 Q 706.8 0.23 706.17 -0.4 Q 705.55 -1.02 705.55 -1.9 L 705.55 -1.9 Q 705.55 -2.77 706.17 -3.39 Q 706.8 -4.01 707.68 -4.01 L 707.68 -4.01 Q 708.53 -4.01 709.17 -3.39 Q 709.81 -2.77 709.81 -1.9 L 709.81 -1.9 Q 709.81 -1.31 709.51 -0.83 Q 709.21 -0.35 708.73 -0.06 Q 708.25 0.23 707.68 0.23 Z" stroke-linecap="round" />
</g>
</g>
</g>
</svg>